<svg width="38" height="53" viewBox="0 0 38 53" fill="none" xmlns="http://www.w3.org/2000/svg">
<path d="M21.9832 0H14.3098V4.95468L16.7047 2.65201C17.501 1.88644 18.7919 1.88644 19.5881 2.65201L21.9832 4.9548V0Z" transform="translate(0.813416 0.935242)" fill="#4F4F4F"/>
<path d="M7.62305 45.7036L10.4879 35.6371L16.7053 41.6151C16.7148 41.6243 16.7245 41.6334 16.7343 41.6424L15.0112 47.6968L12.2877 43.222L7.62305 45.7036Z" transform="translate(0.813416 0.935242)" fill="#4F4F4F"/>
<path d="M21.9003 52L19.0505 41.9868C19.2445 41.8945 19.4263 41.7708 19.5878 41.6155L25.3292 36.0952L29.2886 50.0074L24.6235 47.5256L21.9003 52Z" transform="translate(0.813416 0.935242)" fill="#4F4F4F"/>
<path d="M0.59729 20.7477C-0.199097 21.5131 -0.199097 22.754 0.59729 23.5193L3.1405 25.9633C3.93701 26.7286 5.22827 26.7286 6.02466 25.9633L8.56787 23.5193C9.36426 22.754 9.36426 21.5131 8.56787 20.7477L6.02466 18.3038C5.22827 17.5385 3.93701 17.5385 3.1405 18.3038L0.59729 20.7477Z" transform="translate(0.813416 0.935242)" fill="#4F4F4F"/>
<path d="M7.37927 30.0409C6.58313 29.2753 6.58313 28.0341 7.37927 27.2685L9.92175 24.8239C10.718 24.0584 12.0089 24.0584 12.8052 24.8239L15.3477 27.2685C16.1439 28.0341 16.1439 29.2753 15.3477 30.0409L12.8052 32.4854C12.0089 33.251 10.718 33.251 9.92175 32.4854L7.37927 30.0409Z" transform="translate(0.813416 0.935242)" fill="#4F4F4F"/>
<path d="M14.1616 33.7896C13.3655 34.5552 13.3655 35.7964 14.1616 36.562L16.7041 39.0066C17.5004 39.7721 18.7913 39.7721 19.5875 39.0066L22.13 36.562C22.9263 35.7964 22.9263 34.5552 22.13 33.7896L19.5875 31.3451C18.7913 30.5795 17.5004 30.5795 16.7041 31.3451L14.1616 33.7896Z" transform="translate(0.813416 0.935242)" fill="#4F4F4F"/>
<path d="M7.37927 16.9986C6.58313 16.233 6.58313 14.9918 7.37927 14.2263L9.92175 11.7817C10.718 11.0161 12.0089 11.0161 12.8052 11.7817L15.3477 14.2263C16.1439 14.9918 16.1439 16.233 15.3477 16.9986L12.8052 19.4432C12.0089 20.2087 10.718 20.2087 9.92175 19.4432L7.37927 16.9986Z" transform="translate(0.813416 0.935242)" fill="#4F4F4F"/>
<path d="M14.1616 20.7474C13.3655 21.513 13.3655 22.7542 14.1616 23.5197L16.7041 25.9643C17.5004 26.7299 18.7913 26.7299 19.5875 25.9643L22.13 23.5197C22.9263 22.7542 22.9263 21.513 22.13 20.7474L19.5875 18.3028C18.7913 17.5373 17.5004 17.5373 16.7041 18.3028L14.1616 20.7474Z" transform="translate(0.813416 0.935242)" fill="#4F4F4F"/>
<path d="M20.9442 30.0409C20.1481 29.2753 20.1481 28.0341 20.9442 27.2686L23.4867 24.824C24.283 24.0584 25.5739 24.0584 26.3701 24.824L28.9126 27.2686C29.7089 28.0341 29.7089 29.2753 28.9126 30.0409L26.3701 32.4855C25.5739 33.251 24.283 33.251 23.4867 32.4855L20.9442 30.0409Z" transform="translate(0.813416 0.935242)" fill="#4F4F4F"/>
<path d="M14.1616 7.70514C13.3655 8.4707 13.3655 9.71191 14.1616 10.4775L16.7041 12.9221C17.5004 13.6876 18.7913 13.6876 19.5875 12.9221L22.13 10.4775C22.9263 9.71191 22.9263 8.4707 22.13 7.70514L19.5875 5.26056C18.7913 4.495 17.5004 4.495 16.7041 5.26056L14.1616 7.70514Z" transform="translate(0.813416 0.935242)" fill="#4F4F4F"/>
<path d="M20.9442 16.9986C20.1481 16.233 20.1481 14.9918 20.9442 14.2263L23.4867 11.7817C24.283 11.0161 25.5739 11.0161 26.3701 11.7817L28.9126 14.2263C29.7089 14.9918 29.7089 16.233 28.9126 16.9986L26.3701 19.4432C25.5739 20.2087 24.283 20.2087 23.4867 19.4432L20.9442 16.9986Z" transform="translate(0.813416 0.935242)" fill="#4F4F4F"/>
<path d="M27.7263 20.7474C26.9302 21.513 26.9302 22.7542 27.7263 23.5198L30.2688 25.9644C31.0651 26.7299 32.356 26.7299 33.1522 25.9644L35.6947 23.5198C36.491 22.7542 36.491 21.513 35.6947 20.7474L33.1522 18.3029C32.356 17.5373 31.0651 17.5373 30.2688 18.3029L27.7263 20.7474Z" transform="translate(0.813416 0.935242)" fill="#4F4F4F"/>
</svg>
