<svg width="53" height="52" viewBox="0 0 53 52" fill="none" xmlns="http://www.w3.org/2000/svg">
<path d="M5.59604 29.9622C3.25283 27.6191 3.25283 23.8202 5.59604 21.4772L21.6309 5.44311C23.9741 3.10003 27.7732 3.10003 30.1164 5.44311L46.1512 21.4772C48.4945 23.8202 48.4945 27.6191 46.1512 29.9622L36.8514 39.2616C35.9191 31.3444 33.4513 19.4781 29.3743 18.5706C25.0211 17.6016 23.2736 18.0039 23.0862 18.0861C20.5393 18.815 17.4997 20.5309 16.3145 21.8315C16.1821 21.9768 16.0089 22.121 15.8443 22.2579C15.5237 22.5248 15.236 22.7643 15.3471 22.9313C16.1005 24.0633 17.1473 25.1953 18.0305 26.0985C18.3757 26.4516 18.2903 26.9231 18.2024 27.4083C18.1921 27.465 18.1818 27.5219 18.1722 27.5788C18.1359 27.7927 18.115 28.0896 18.115 28.5113C18.111 28.5479 18.1126 28.5855 18.1142 28.6241C18.1159 28.6635 18.1176 28.7042 18.1134 28.7457C18.0909 28.9701 18.346 28.9068 18.6895 28.7838C18.949 28.6908 19.2167 28.878 19.2167 29.1536V29.3162C19.2167 29.4516 19.2662 29.5614 19.4015 29.5608C19.5337 29.5602 19.7004 29.6678 19.7004 29.7999V30.011C19.7004 30.0348 19.7022 30.0585 19.7059 30.082L19.7122 30.1222C19.787 30.6001 20.1987 30.9523 20.6824 30.9523H21.0387C21.2502 30.9523 21.3661 31.1984 21.2315 31.3615L18.6207 34.5244C18.5716 34.5838 18.5286 34.6492 18.4965 34.7193C18.2439 35.2712 18.3817 35.3704 18.6496 35.5631C18.7464 35.6327 18.8601 35.7146 18.9786 35.8344C19.1189 35.9762 18.2933 38.2156 16.7129 41.0786L5.59604 29.9622Z" fill="#4F4F4F"/>
<path fill-rule="evenodd" clip-rule="evenodd" d="M2.92899 33.0713C-0.97633 29.1662 -0.97633 22.8346 2.92899 18.9295L18.9302 2.92889C22.8355 -0.976295 29.1673 -0.976295 33.0726 2.92889L49.0738 18.9295C52.9791 22.8346 52.9791 29.1662 49.0738 33.0713L33.0726 49.072C29.1673 52.9771 22.8355 52.9771 18.9302 49.072L2.92899 33.0713ZM4.34618 31.6585C1.22266 28.5336 1.22266 23.4672 4.34618 20.3423L20.3399 4.34164C23.4634 1.21676 28.5276 1.21676 31.6511 4.34164L47.6448 20.3423C50.7683 23.4672 50.7683 28.5336 47.6448 31.6585L31.6511 47.6592C28.5276 50.7841 23.4634 50.7841 20.3399 47.6592L4.34618 31.6585Z" fill="#4F4F4F"/>
</svg>
