<svg width="53" height="52" viewBox="0 0 53 52" fill="none" xmlns="http://www.w3.org/2000/svg">
<path d="M5.55811 30.2429C3.21492 27.8998 3.21492 24.1009 5.55811 21.7578L21.7587 5.55779C24.1019 3.21468 27.901 3.21468 30.2442 5.55779L46.4448 21.7578C48.788 24.1009 48.788 27.8998 46.4448 30.2429L36.2669 40.4204L35.6343 39.3806C35.597 39.3194 35.5533 39.2624 35.5039 39.2105L29.8435 33.271C29.5776 32.992 29.4957 32.585 29.633 32.2249L30.4564 30.0648C30.5729 29.7593 30.8313 29.53 31.1484 29.4508L33.8986 28.7637C34.1815 28.693 34.4807 28.4928 34.415 28.2087C34.3927 28.1125 34.3481 28.0166 34.2953 27.9029C34.28 27.87 34.2641 27.8356 34.2477 27.7992C34.2358 27.7727 34.2192 27.7484 34.1984 27.728L34.0413 27.5736C33.9382 27.4723 34.0293 27.2794 34.158 27.2136C34.2044 27.1898 34.2301 27.1404 34.2296 27.0883C34.2285 26.9543 34.2209 26.9274 34.1713 26.8156C34.1344 26.7324 34.1113 26.641 34.1344 26.553C34.1471 26.5045 34.1645 26.4587 34.1812 26.4148C34.2326 26.2795 34.2769 26.1627 34.1549 26.0465C34.1459 26.038 34.1367 26.0297 34.1275 26.0213C34.1113 26.0066 34.0951 25.9919 34.0801 25.9761L33.7039 25.5792C33.4797 25.3427 33.6474 24.9528 33.9732 24.9528H34.036C34.2062 24.9528 34.3442 24.8148 34.3442 24.6446C34.3442 24.5475 34.2985 24.4561 34.2209 24.3979L32.8935 23.403C32.6416 23.2142 32.4933 22.9177 32.4933 22.6029V22.5784C32.4933 22.3215 32.3944 22.0744 32.2172 21.8885L26.8753 16.2832C26.5526 15.9445 26.0383 15.8749 25.6371 16.1154L20.3075 19.3111C20.2055 19.3722 20.1153 19.451 20.041 19.5438L17.4258 22.8108C16.9703 23.3797 17.2569 24.2292 17.9641 24.4059L18.1821 24.4603C18.262 24.4803 18.3391 24.51 18.4117 24.5489L22.2168 26.586C22.4736 26.7235 22.6601 26.9655 22.7083 27.2528C22.8686 28.2073 22.9546 29.5401 22.6213 30.0397C22.4533 30.2916 22.1021 30.6464 21.6676 31.0855C20.5151 32.2502 18.7761 34.0075 18.3121 36.0086C18.3055 36.0372 18.3004 36.066 18.2966 36.0951L17.4955 42.1798L5.55811 30.2429Z" transform="translate(0.000488281)" fill="#4F4F4F"/>
<path fill-rule="evenodd" clip-rule="evenodd" d="M2.92899 33.0713C-0.976329 29.1662 -0.976329 22.8346 2.92899 18.9295L18.9302 2.92889C22.8355 -0.976295 29.1673 -0.976295 33.0726 2.92889L49.0738 18.9295C52.9791 22.8346 52.9791 29.1662 49.0738 33.0713L33.0726 49.0719C29.1673 52.9771 22.8355 52.9771 18.9302 49.0719L2.92899 33.0713ZM4.3452 31.6603C1.2227 28.5344 1.2227 23.4664 4.3452 20.3405L20.3334 4.33501C23.4559 1.20913 28.5185 1.20913 31.641 4.33501L47.6292 20.3405C50.7517 23.4664 50.7517 28.5344 47.6292 31.6603L31.641 47.6658C28.5185 50.7916 23.4559 50.7916 20.3334 47.6658L4.3452 31.6603Z" transform="translate(0.000488281)" fill="#4F4F4F"/>
</svg>
