<svg width="32" height="52" viewBox="0 0 32 52" fill="none" xmlns="http://www.w3.org/2000/svg">
<path d="M18 2C18 2.38266 17.8925 2.74023 17.7061 3.04416C22.705 3.30569 26.5204 4.69742 26.5204 6.375C26.5204 6.40305 26.5193 6.43103 26.5172 6.45889C26.4902 6.81345 26.1217 7 25.7661 7H6.23364C5.87806 7 5.50955 6.81345 5.48258 6.45889C5.48046 6.43103 5.47939 6.40305 5.47939 6.375C5.47939 4.69739 9.29487 3.30566 14.2939 3.04416C14.1075 2.74023 14 2.38266 14 2C14 0.895416 14.8954 0 16 0C17.1046 0 18 0.895416 18 2Z" fill="#4F4F4F"/>
<path fill-rule="evenodd" clip-rule="evenodd" d="M6 15C7.19827 15 7.66882 13.4459 6.6718 12.7812L5.5 12C4.15194 11.1013 4.78816 9 6.40833 9H25.5917C27.2118 9 27.8481 11.1013 26.5 12L25.3282 12.7812C24.3312 13.4459 24.8017 15 26 15C29.3137 15 32 17.6863 32 21V46C32 49.3137 29.3137 52 26 52H6C2.68629 52 0 49.3137 0 46V21C0 17.6863 2.68629 15 6 15ZM26 31C26 33.7614 21.5229 36 16 36C10.4772 36 6 33.7614 6 31C6 28.2386 10.4772 26 16 26C21.5229 26 26 28.2386 26 31Z" fill="#4F4F4F"/>
</svg>
