<svg width="36" height="52" viewBox="0 0 36 52" fill="none" xmlns="http://www.w3.org/2000/svg">
<path d="M14.3432 0H21.3432V5.78671L19.6778 4.12131C18.5061 2.94974 16.6067 2.94974 15.4351 4.12131L14.3432 5.21323V0Z" fill="#4F4F4F"/>
<path d="M16.1422 6.24265C16.9232 5.46161 18.1896 5.46161 18.9706 6.24265L24.6275 11.8995C25.4086 12.6805 25.4086 13.9469 24.6275 14.7279L18.9706 20.3848C18.1896 21.1658 16.9232 21.1658 16.1422 20.3848L10.4854 14.7279C9.70425 13.9469 9.70425 12.6805 10.4854 11.8995L16.1422 6.24265Z" fill="#4F4F4F"/>
<path d="M26.0418 16.1422C26.8228 15.3611 28.0891 15.3611 28.8701 16.1422L34.527 21.799C35.3081 22.58 35.3081 23.8464 34.527 24.6274L28.8701 30.2843C28.0891 31.0653 26.8228 31.0653 26.0418 30.2843L20.3849 24.6274C19.6038 23.8464 19.6038 22.58 20.3849 21.799L26.0418 16.1422Z" fill="#4F4F4F"/>
<path d="M9.07108 16.1422C8.29007 15.3611 7.02371 15.3611 6.24271 16.1422L0.585846 21.799C-0.195282 22.58 -0.195282 23.8464 0.585846 24.6274L6.24271 30.2843C7.02371 31.0653 8.29007 31.0653 9.07108 30.2843L14.7279 24.6274C15.5091 23.8464 15.5091 22.58 14.7279 21.799L9.07108 16.1422Z" fill="#4F4F4F"/>
<path d="M16.1422 26.0416C16.9232 25.2606 18.1896 25.2606 18.9706 26.0416L24.6275 31.6985C25.4086 32.4795 25.4086 33.7458 24.6275 34.5269L18.9706 40.1837C18.1896 40.9648 16.9232 40.9648 16.1422 40.1837L10.4854 34.5269C9.70425 33.7458 9.70425 32.4795 10.4854 31.6985L16.1422 26.0416Z" fill="#4F4F4F"/>
<path d="M20.425 51.9999L17.5987 43.1834C18.3523 43.1728 19.1027 42.88 19.6778 42.305L24.6758 37.307L28.7471 50.0074L23.4925 47.5255L20.425 51.9999Z" fill="#4F4F4F"/>
<path d="M9.91263 36.7827L6.95547 46.0075L12.2101 43.5256L15.2776 47.9999L16.8485 43.0995C16.3306 42.9742 15.8395 42.7094 15.4351 42.3051L9.91263 36.7827Z" fill="#4F4F4F"/>
</svg>
