<svg width="48" height="52" viewBox="0 0 48 52" fill="none" xmlns="http://www.w3.org/2000/svg">
<path d="M38 16.1219C38 21.9509 34.1746 22.5735 28.8563 22.5845C28.8556 22.5845 28.8549 22.5845 28.8543 22.5845H28.5575C28.5568 22.5845 28.5562 22.5845 28.5555 22.5845C27.9583 22.5833 27.3432 22.5757 26.7133 22.5678C25.9932 22.5589 25.2538 22.5497 24.5 22.5497C23.7462 22.5497 23.0068 22.5589 22.2867 22.5678C21.6565 22.5757 21.041 22.5833 20.4435 22.5845C20.3434 22.5847 20.2438 22.5847 20.1447 22.5845C14.8259 22.5736 11 21.9513 11 16.1219C11 12.5401 13.7101 10.4915 16.7329 8.20645C19.4052 6.18643 22.3218 3.98166 23.8266 0.369598C24.0319 -0.123199 24.9681 -0.123199 25.1734 0.369598C26.6782 3.98166 29.5948 6.18643 32.2671 8.20645C35.2899 10.4915 38 12.5401 38 16.1219Z" fill="#4F4F4F"/>
<path d="M44.9138 10.0561C44.9138 10.056 44.9138 10.0561 44.9138 10.0561C44.5619 9.26425 43.4381 9.26425 43.0862 10.0561C43.0862 10.056 43.0862 10.0561 43.0862 10.0561L40.0862 16.8061C40.0294 16.9339 40 17.0723 40 17.2122V23.7247C40 24.277 39.5523 24.7247 39 24.7247H9C8.44772 24.7247 8 24.277 8 23.7247V17.2122C8 17.0723 7.97064 16.9339 7.91381 16.8061L4.91382 10.0561C4.91382 10.0561 4.91382 10.0561 4.91382 10.0561C4.56189 9.26427 3.43812 9.26425 3.08618 10.0561C3.08619 10.056 3.08618 10.0561 3.08618 10.0561L0.0861878 16.8061C0.029362 16.9339 0 17.0723 0 17.2122V24.7247V33V46.9991C0 49.7605 2.23859 51.9991 5 51.9991H17C17.5523 51.9991 18 51.5514 18 50.9991V42C18 39.7909 19.7908 38 22 38H26C28.2092 38 30 39.7909 30 42V50.9991C30 51.5514 30.4477 51.9991 31 51.9991H43C45.7614 51.9991 48 49.7605 48 46.9991V33V24.7247V17.2122C48 17.0723 47.9706 16.9339 47.9138 16.8061L44.9138 10.0561Z" fill="#4F4F4F"/>
</svg>
