<svg width="51" height="52" viewBox="0 0 51 52" fill="none" xmlns="http://www.w3.org/2000/svg">
<path d="M34.915 10.533C34.915 11.1775 34.8403 11.728 34.6981 12.1981L35.7236 13.1913C36.3691 13.8165 35.9265 14.9096 35.0278 14.9096H15.0021C14.1035 14.9096 13.6609 13.8165 14.3064 13.1913L15.3317 12.1982C15.1896 11.7281 15.1148 11.1775 15.1148 10.533C15.1148 8.10724 17.1022 6.71985 19.319 5.17239C21.1466 3.89658 23.1301 2.51196 24.2842 0.346985C24.5309 -0.115662 25.499 -0.115662 25.7457 0.346985C26.8998 2.51199 28.8833 3.89661 30.7109 5.17239C32.9276 6.71988 34.915 8.10724 34.915 10.533Z" fill="#4F4F4F"/>
<path d="M15.0149 18.9096C15.0149 17.8051 15.9103 16.9096 17.0149 16.9096H33.0149C34.1194 16.9096 35.0149 17.8051 35.0149 18.9096V41.9096C35.0149 43.0142 34.1194 43.9096 33.0149 43.9096H29.0149V32.6091C29.0149 32.3566 28.9194 32.1135 28.7476 31.9285L25.7476 28.6985C25.352 28.2726 24.6778 28.2726 24.2822 28.6985L21.2822 31.9285C21.1104 32.1135 21.0149 32.3566 21.0149 32.6091V43.9096H17.0149C15.9103 43.9096 15.0149 43.0142 15.0149 41.9096V18.9096Z" fill="#4F4F4F"/>
<path d="M12.6669 16.7203C12.6669 17.1806 12.6204 17.5737 12.5321 17.9095L12.7732 18.1778C13.3514 18.8216 12.8945 19.8461 12.0292 19.8461H1.00201C0.136658 19.8461 -0.32019 18.8216 0.258057 18.1778L0.498901 17.9097C0.410583 17.5739 0.364075 17.1807 0.364075 16.7203C0.364075 14.9878 1.59894 13.997 2.97632 12.8918C3.90192 12.1491 4.89185 11.3547 5.61462 10.2491C5.91046 9.79651 7.12042 9.79651 7.41626 10.2491C8.13904 11.3547 9.12897 12.149 10.0546 12.8918C11.432 13.9969 12.6669 14.9878 12.6669 16.7203Z" fill="#4F4F4F"/>
<path fill-rule="evenodd" clip-rule="evenodd" d="M0 22.9096C0 22.3574 0.447693 21.9096 1 21.9096H12C12.5523 21.9096 13 22.3574 13 22.9096V42.9096C13 43.4619 12.5523 43.9096 12 43.9096H1C0.447693 43.9096 0 43.4619 0 42.9096V22.9096ZM3 31.8666V40.9096C3 41.4619 3.44769 41.9096 4 41.9096H9C9.55231 41.9096 10 41.4619 10 40.9096V31.8666C10 31.6037 9.89642 31.3514 9.71179 31.1642L7.21179 28.6309C6.82019 28.2341 6.17981 28.2341 5.78821 28.6309L3.28821 31.1642C3.10358 31.3514 3 31.6037 3 31.8666Z" fill="#4F4F4F"/>
<path d="M49.5321 17.9095C49.6204 17.5737 49.6669 17.1806 49.6669 16.7203C49.6669 14.9878 48.432 13.9969 47.0546 12.8918C46.129 12.149 45.139 11.3547 44.4163 10.2491C44.1204 9.79651 42.9105 9.79651 42.6146 10.2491C41.8918 11.3547 40.9019 12.1491 39.9763 12.8918C38.5989 13.997 37.3641 14.9878 37.3641 16.7203C37.3641 17.1807 37.4106 17.5739 37.4989 17.9097L37.2581 18.1778C36.6798 18.8216 37.1367 19.8461 38.002 19.8461H49.0292C49.8945 19.8461 50.3514 18.8216 49.7732 18.1778L49.5321 17.9095Z" fill="#4F4F4F"/>
<path fill-rule="evenodd" clip-rule="evenodd" d="M38 21.9096C37.4477 21.9096 37 22.3574 37 22.9096V42.9096C37 43.4619 37.4477 43.9096 38 43.9096H49C49.5523 43.9096 50 43.4619 50 42.9096V22.9096C50 22.3574 49.5523 21.9096 49 21.9096H38ZM40 40.9096V31.8666C40 31.6037 40.1036 31.3514 40.2882 31.1642L42.7882 28.6309C43.1798 28.2341 43.8202 28.2341 44.2118 28.6309L46.7118 31.1642C46.8964 31.3514 47 31.6037 47 31.8666V40.9096C47 41.4619 46.5523 41.9096 46 41.9096H41C40.4477 41.9096 40 41.4619 40 40.9096Z" fill="#4F4F4F"/>
<path d="M6.00006 46.4096C6.00006 46.1335 6.22394 45.9096 6.50006 45.9096H43.5001C43.7762 45.9096 44.0001 46.1335 44.0001 46.4096V47.4096C44.0001 47.6858 43.7762 47.9096 43.5001 47.9096H6.50006C6.22394 47.9096 6.00006 47.6858 6.00006 47.4096V46.4096Z" fill="#4F4F4F"/>
<path d="M11.5001 49.9096C11.2239 49.9096 11.0001 50.1335 11.0001 50.4096V51.4096C11.0001 51.6858 11.2239 51.9096 11.5001 51.9096H38.5001C38.7762 51.9096 39.0001 51.6858 39.0001 51.4096V50.4096C39.0001 50.1335 38.7762 49.9096 38.5001 49.9096H11.5001Z" fill="#4F4F4F"/>
</svg>
