<svg width="52" height="52" viewBox="0 0 52 52" fill="none" xmlns="http://www.w3.org/2000/svg">
<path d="M44.5373 2.00823C44.5373 -0.306835 43.3737 -0.111218 41.7961 0.154041C41.2291 0.249378 40.6086 0.353687 39.9694 0.353687C39.3131 0.353687 38.7045 0.243702 38.1661 0.146381C36.7214 -0.114758 35.7822 -0.284527 35.7822 2.00823C35.7822 3.06453 35.8058 4.43514 36.6174 5.42113C28 6.96209 28 14.7527 28 19.9837C28 25.0132 31.9736 24.9245 37.2925 24.8059L37.2982 24.8057L37.3038 24.8056C38.1447 24.7869 39.019 24.7674 39.9167 24.7674C40.8179 24.7674 41.6957 24.787 42.5397 24.8058L42.5408 24.8059C47.8597 24.9245 51.8333 25.0132 51.8333 19.9837C51.8333 14.8386 51.8333 7.21694 43.633 5.50194C44.5123 4.5111 44.5373 3.09374 44.5373 2.00823Z" fill="#4F4F4F"/>
<path d="M0 28C0 26.3432 1.34314 25 3 25H6C7.65686 25 9 26.3432 9 28V45C9 46.6569 7.65686 48 6 48H3C1.34314 48 0 46.6569 0 45V28Z" fill="#4F4F4F"/>
<path d="M11 44.8949V30.7958C11 27.7951 13.7419 25.5425 16.6855 26.1249C16.7892 26.1454 16.8882 26.1617 16.9929 26.1757C18.613 26.3927 32.6879 28.3396 34.4989 30.737C36.421 33.2813 34.3542 37.6981 31.9362 37.0979C31.3537 36.9533 30.8158 36.8134 30.3195 36.6843C28.7557 36.2776 27.6046 35.9782 26.7709 35.9782C25.6726 35.9782 26.0387 39.0815 26.7709 39.445C27.2573 39.6864 31.2206 40.6267 33.8275 41.231C35.3132 41.5754 36.8683 41.4155 38.2574 40.7859L45.1741 37.6513C46.8555 36.8893 48.8314 36.7372 50.3556 37.7785C51.8333 38.7881 52.9946 40.2584 50.7194 41.7562C48.8382 42.9946 46.8334 44.4086 44.7619 45.8699L44.7606 45.8708C42.3299 47.5853 39.8074 49.3646 37.2849 51.0009C33.1578 53.678 21.7405 50.2741 17.2874 48.9465L17.2839 48.9454C16.6967 48.7704 16.2308 48.6315 15.9191 48.5476C14.0776 48.0518 11 46.8019 11 44.8949Z" fill="#4F4F4F"/>
</svg>
