<svg width="52" height="28" viewBox="0 0 52 28" fill="none" xmlns="http://www.w3.org/2000/svg">
<path d="M26 0C33.1797 0 39 5.82031 39 13C39 14.2283 38.8297 15.4169 38.5113 16.5433C38.4232 16.855 38.1337 17.0625 37.8097 17.0625H14.1903C13.8663 17.0625 13.5768 16.855 13.4887 16.5433C13.1703 15.4169 13 14.2283 13 13C13 5.82031 18.8203 0 26 0Z" fill="#4F4F4F"/>
<path d="M8.64703 20.1875C8.09473 20.1875 7.64703 19.7398 7.64703 19.1875V14.9375C7.64703 14.3852 8.09473 13.9375 8.64703 13.9375H9.70593C10.2582 13.9375 10.7059 13.4898 10.7059 12.9375V10.25C10.7059 9.69772 10.2582 9.25 9.70593 9.25H3C1.34314 9.25 0 10.5931 0 12.25V25C0 26.6569 1.34314 28 3 28H49C50.6569 28 52 26.6569 52 25V12.25C52 10.5931 50.6569 9.25 49 9.25H42.2941C41.7418 9.25 41.2941 9.69772 41.2941 10.25V12.9375C41.2941 13.4898 41.7418 13.9375 42.2941 13.9375H43.3529C43.9052 13.9375 44.3529 14.3852 44.3529 14.9375V19.1875C44.3529 19.7398 43.9052 20.1875 43.3529 20.1875H8.64703Z" fill="#4F4F4F"/>
</svg>
