<svg width="46" height="53" viewBox="0 0 46 53" fill="none" xmlns="http://www.w3.org/2000/svg">
<path d="M22.4398 6.76993C20.2443 5.48102 19.4834 2.64142 20.7405 0.427491C20.8706 0.198365 20.624 -0.111389 20.4103 0.040192C19.7363 0.51828 19.1551 1.14731 18.7199 1.91367C17.0857 4.79178 18.1319 8.51685 21.0566 10.2338C23.9814 11.9508 27.6772 11.0096 29.3114 8.13147C29.7465 7.36511 29.9916 6.5387 30.0618 5.70612C30.084 5.44202 29.697 5.37976 29.5668 5.60898C28.3097 7.82291 25.5108 8.57278 23.3152 7.28387L22.4398 6.76993Z" fill="#4F4F4F"/>
<path d="M24.6554 12.6924C24.6554 12.5543 24.5434 12.4427 24.4054 12.4388C23.4474 12.412 22.5273 12.231 21.6681 11.9196C21.5008 11.8589 21.32 11.9803 21.32 12.1582V13.5578C9.5548 16.1699 0.238454 23.5544 0.238454 37.7527C0.238393 46.3493 10.2018 48.2679 23.5436 48.2679C36.8852 48.2679 45.7369 46.3493 45.7369 37.7527C45.7369 23.5786 36.021 16.1951 24.6554 13.5712V12.6924Z" fill="#4F4F4F"/>
<path d="M43.8058 46.2334C43.997 46.1089 44.222 46.0446 44.4495 46.0638C45.1639 46.124 45.6362 46.2039 45.7792 46.3494C47.4469 48.0451 39.6276 52.0019 23.6525 52.0019C7.67736 52.0019 -1.47303 48.0451 0.194692 46.3494C0.346852 46.1946 0.989003 46.1254 1.96947 46.0686C2.17754 46.0566 2.38237 46.1118 2.56084 46.2195C7.10412 48.9604 14.662 49.7411 23.5981 49.7411C32.519 49.7411 39.6143 48.963 43.8058 46.2334Z" fill="#4F4F4F"/>
</svg>
