<svg width="50" height="52" viewBox="0 0 50 52" fill="none" xmlns="http://www.w3.org/2000/svg">
<path d="M24.25 6.90401C24.1119 6.90401 24 6.79207 24 6.65401V0.490026C24 0.197456 23.7497 -0.0335337 23.4596 0.00401057C22.3287 0.150338 21.2138 0.458493 20.1501 0.928453C20.1502 0.928453 20.1501 0.928454 20.1501 0.928453L0.0021021 9.83082C0.00120935 9.83121 0 9.83159 0 9.83257V16.3562C0 16.6982 0.335739 16.9393 0.659835 16.83L24.2008 8.88793C24.2008 8.88793 24.2008 8.88793 24.2008 8.88793C24.7193 8.71303 25.2808 8.71303 25.7992 8.88793L49.3402 16.83C49.6643 16.9393 50 16.6982 50 16.3562V9.83257C50 9.83159 49.9988 9.83121 49.9979 9.83082L29.8499 0.928455C29.8499 0.928456 29.8499 0.928454 29.8499 0.928455C28.7862 0.458494 27.6713 0.150338 26.5404 0.00401056C26.2503 -0.0335337 26 0.197456 26 0.490026V6.65401C26 6.79207 25.8881 6.90401 25.75 6.90401H24.25Z" fill="#20c997"/>
<path fill-rule="evenodd" clip-rule="evenodd" d="M50 22.6917C50 22.4156 49.7739 22.1967 49.5034 22.1415C49.4022 22.1208 49.3012 22.0937 49.2008 22.0598C49.2009 22.0598 49.2008 22.0598 49.2008 22.0598L25.1598 13.9491C25.0561 13.9141 24.9439 13.9141 24.8402 13.9491L0.799173 22.0598C0.799179 22.0598 0.799167 22.0598 0.799173 22.0598C0.69881 22.0937 0.597784 22.1208 0.496621 22.1415C0.226053 22.1967 0 22.4156 0 22.6917V25.9408C0 26.2828 0.335738 26.5239 0.659833 26.4146L6.07088 24.589C6.39498 24.4797 6.73071 24.7208 6.73071 25.0628V28.2289C6.73071 28.4435 6.59384 28.6341 6.39055 28.7027L0.639352 30.643C0.639358 30.643 0.639346 30.643 0.639352 30.643C0.591312 30.6592 0.543069 30.6735 0.494742 30.6859C0.227254 30.7545 0 30.9723 0 31.2485V44.5155C0 46.5709 1.36707 48.3753 3.34567 48.9316C9.93858 50.7854 16.71 51.7761 23.4938 51.9039C23.7723 51.9091 24 51.6841 24 51.4055V25.154C24 25.0159 24.1119 24.904 24.25 24.904H25.75C25.8881 24.904 26 25.0159 26 25.154V51.4055C26 51.6841 26.2277 51.9091 26.5062 51.9039C27.7329 51.8808 28.9591 51.8294 30.184 51.7499C30.1978 51.749 30.2084 51.7374 30.2084 51.7236V46.9767V37.9425C30.2084 37.3239 30.7643 36.8537 31.3743 36.9563C31.3743 36.9563 31.3744 36.9563 31.3743 36.9563L36.666 37.8471C36.666 37.8471 36.666 37.8471 36.666 37.8471C37.1475 37.9281 37.5 38.345 37.5 38.8332V49.5309V50.3502C37.5 50.6575 37.7747 50.8922 38.0778 50.8419C40.9608 50.3642 43.824 49.7275 46.6543 48.9316C48.6329 48.3753 50 46.5709 50 44.5155V31.2485C50 30.9723 49.7727 30.7545 49.5053 30.6859C49.4569 30.6735 49.4087 30.6592 49.3607 30.643C49.3607 30.643 49.3607 30.643 49.3607 30.643L43.6093 28.7026C43.406 28.6341 43.2691 28.4434 43.2691 28.2289V25.0628C43.2691 24.7207 43.6049 24.4797 43.929 24.589L49.3402 26.4146C49.6643 26.5239 50 26.2828 50 25.9408V22.6917ZM38.1213 22.6296C38.3245 22.6982 38.4614 22.8889 38.4614 23.1034V26.2695C38.4614 26.6116 38.1257 26.8526 37.8016 26.7433L32.071 24.81C31.8677 24.7414 31.7308 24.5508 31.7308 24.3362V21.1701C31.7308 20.828 32.0665 20.587 32.3906 20.6963L38.1213 22.6296ZM26.5829 18.737C26.7862 18.8056 26.9231 18.9962 26.9231 19.2107V22.3769C26.9231 22.7189 26.5874 22.96 26.2633 22.8506L25.1598 22.4783C25.0561 22.4434 24.9438 22.4434 24.8402 22.4783L23.7367 22.8506C23.4126 22.96 23.0769 22.7189 23.0769 22.3769V19.2107C23.0769 18.9962 23.2138 18.8056 23.417 18.737L24.3607 18.4186C24.3607 18.4186 24.3607 18.4186 24.3607 18.4186C24.7754 18.2787 25.2246 18.2787 25.6393 18.4186L26.5829 18.737ZM18.2692 21.1701C18.2692 20.828 17.9334 20.587 17.6093 20.6963L11.8786 22.6297C11.6753 22.6983 11.5384 22.8889 11.5384 23.1035V26.2696C11.5384 26.6116 11.8742 26.8527 12.1983 26.7434L17.929 24.81C18.1323 24.7414 18.2692 24.5508 18.2692 24.3362V21.1701ZM8.20947 24.7054C8.20948 24.7053 8.20945 24.7054 8.20947 24.7054L8.95767 23.289C8.95767 23.289 8.95767 23.289 8.95767 23.289C9.03274 23.1469 9.23626 23.1469 9.31132 23.2889C9.3113 23.2889 9.31133 23.289 9.31132 23.2889L10.0596 24.7053C10.0595 24.7053 10.0596 24.7054 10.0596 24.7053C10.083 24.7497 10.0889 24.8014 10.0761 24.8499C10.0761 24.8499 10.0761 24.8499 10.0761 24.8499L9.32788 27.6827C9.32789 27.6827 9.32788 27.6828 9.32788 27.6827C9.27542 27.8813 8.9936 27.8813 8.94113 27.6828C8.94114 27.6828 8.94113 27.6828 8.94113 27.6828L8.1929 24.8499C8.1929 24.8499 8.1929 24.8499 8.1929 24.8499C8.18009 24.8014 8.18602 24.7497 8.20947 24.7054ZM20.4961 19.4665C20.4961 19.4665 20.4961 19.4665 20.4961 19.4665L19.7479 20.8829C19.7479 20.8828 19.7479 20.8829 19.7479 20.8829C19.7245 20.9273 19.7185 20.9789 19.7314 21.0274C19.7313 21.0274 19.7314 21.0274 19.7314 21.0274L20.4796 23.8603C20.4796 23.8603 20.4796 23.8603 20.4796 23.8603C20.532 24.0588 20.8139 24.0589 20.8663 23.8603C20.8663 23.8603 20.8663 23.8603 20.8663 23.8603L21.6146 21.0274C21.6146 21.0274 21.6146 21.0274 21.6146 21.0274C21.6274 20.9789 21.6215 20.9274 21.5981 20.883C21.5981 20.8831 21.5981 20.8829 21.5981 20.883L20.8498 19.4666C20.8498 19.4666 20.8498 19.4665 20.8498 19.4666C20.7748 19.3245 20.5712 19.3244 20.4961 19.4665ZM28.402 20.8829C28.402 20.8828 28.402 20.8829 28.402 20.8829L29.1502 19.4665C29.1502 19.4665 29.1502 19.4665 29.1502 19.4665C29.2252 19.3244 29.4288 19.3244 29.5038 19.4665C29.5038 19.4664 29.5038 19.4665 29.5038 19.4665L30.2521 20.8828C30.252 20.8828 30.2521 20.8829 30.2521 20.8828C30.2755 20.9272 30.2814 20.9789 30.2686 21.0274C30.2686 21.0274 30.2686 21.0274 30.2686 21.0274L29.5204 23.8603C29.5204 23.8603 29.5204 23.8603 29.5204 23.8603C29.4679 24.0588 29.1861 24.0589 29.1336 23.8603C29.1336 23.8603 29.1336 23.8603 29.1336 23.8603L28.3854 21.0274C28.3854 21.0274 28.3854 21.0274 28.3854 21.0274C28.3726 20.9789 28.3785 20.9273 28.402 20.8829ZM40.6884 23.289C40.6884 23.289 40.6884 23.289 40.6884 23.289L39.9402 24.7054C39.9402 24.7053 39.9402 24.7054 39.9402 24.7054C39.9167 24.7497 39.9108 24.8014 39.9236 24.8499C39.9236 24.8499 39.9236 24.8499 39.9236 24.8499L40.6718 27.6827C40.6718 27.6827 40.6718 27.6828 40.6718 27.6827C40.7243 27.8813 41.0061 27.8813 41.0586 27.6828C41.0586 27.6828 41.0586 27.6828 41.0586 27.6828L41.8068 24.8499C41.8068 24.8499 41.8068 24.8499 41.8068 24.8499C41.8196 24.8014 41.8138 24.7499 41.7904 24.7055C41.7904 24.7055 41.7903 24.7054 41.7904 24.7055L41.0421 23.289C41.0421 23.2891 41.0421 23.289 41.0421 23.289C40.967 23.147 40.7635 23.1469 40.6884 23.289Z" fill="#20c997"/>
</svg>
