<svg width="52" height="42" viewBox="0 0 52 42" fill="none" xmlns="http://www.w3.org/2000/svg">
<path d="M3.11038 9.28351C2.8726 9.65747 3.22258 10.1082 3.6498 9.99036L18.9649 5.7655C19.4664 5.62714 19.4495 4.91028 18.942 4.79578L10.0671 2.79266C9.94313 2.76465 9.81296 2.78473 9.70403 2.85028C7.03853 4.45398 4.77756 6.66144 3.11038 9.28351Z" fill="#4F4F4F"/>
<path d="M26.7229 0.968201C27.1006 0.655334 26.8873 0 26.3968 0H20C18.0235 0 16.1139 0.286743 14.3106 0.820862C13.8374 0.960999 13.8774 1.60236 14.3589 1.711L23.5759 3.79132C23.7617 3.83325 23.9547 3.76569 24.0766 3.61938C24.893 2.63855 25.7785 1.75049 26.7229 0.968201Z" fill="#4F4F4F"/>
<path d="M24.0766 38.3806C23.9548 38.2343 23.7617 38.1667 23.576 38.2086L14.3588 40.289C13.8774 40.3976 13.8373 41.039 14.3106 41.1791C16.1139 41.7133 18.0235 42 20 42H26.3968C26.8873 42 27.1006 41.3447 26.7229 41.0318C25.7785 40.2495 24.893 39.3614 24.0766 38.3806Z" fill="#4F4F4F"/>
<path d="M18.9648 36.2345C19.4663 36.3729 19.4493 37.0897 18.9419 37.2042L10.0671 39.2073C9.94312 39.2354 9.81293 39.2153 9.70399 39.1497C7.03854 37.546 4.7776 35.3386 3.11044 32.7166C2.87267 32.3426 3.22264 31.8918 3.64986 32.0097L18.9648 36.2345Z" fill="#4F4F4F"/>
<path d="M21.1321 33.8527C21.3316 34.2502 20.9668 34.7121 20.5381 34.5938L4.08441 30.0549C3.64058 29.9324 3.58412 29.3259 3.99773 29.1237L17.5233 22.5092C17.8481 22.3504 18.2295 22.5784 18.2522 22.9392C18.5041 26.936 19.5275 30.6547 21.1321 33.8527Z" fill="#4F4F4F"/>
<path d="M15.1384 20.5508C15.5122 20.7336 15.5122 21.2664 15.1384 21.4492L1.54158 28.0984C1.27002 28.2312 0.943176 28.0947 0.85556 27.8054C0.299149 25.968 0 24.0189 0 22V20C0 17.981 0.299149 16.0319 0.855576 14.1946C0.943192 13.9053 1.27003 13.7687 1.5416 13.9015L15.1384 20.5508Z" fill="#4F4F4F"/>
<path d="M18.2522 19.0607C18.2295 19.4216 17.8481 19.6495 17.5233 19.4907L3.99773 12.8763C3.58412 12.6741 3.64059 12.0676 4.08441 11.9451L20.5381 7.40619C20.9667 7.2879 21.3315 7.74982 21.1321 8.14728C19.5275 11.3453 18.5041 15.064 18.2522 19.0607Z" fill="#4F4F4F"/>
<path fill-rule="evenodd" clip-rule="evenodd" d="M52 21C52 32.598 45.0604 42 36.5 42C27.9396 42 21 32.598 21 21C21 9.40204 27.9396 0 36.5 0C45.0604 0 52 9.40204 52 21ZM34.0386 18.1735C34.4861 17.501 34.6509 16.6528 34.4216 15.8171C33.9928 14.254 32.3478 13.3263 30.7474 13.7451C29.147 14.164 28.1972 15.7708 28.6261 17.3339C29.0549 18.8971 30.6999 19.8248 32.3003 19.4059C32.3452 19.3942 32.3896 19.3815 32.4334 19.3679L34.9085 21.7892L29.6065 26.9761C29.2163 27.3578 29.2165 27.9765 29.607 28.358C29.9976 28.7394 30.6305 28.7391 31.0207 28.3574L36.3216 23.1717L41.664 28.398C42.0542 28.7797 42.6871 28.78 43.0777 28.3986C43.4682 28.0171 43.4684 27.3984 43.0782 27.0167L37.7347 21.7892L40.2751 19.304C40.4091 19.3607 40.549 19.4084 40.6942 19.4465C42.2946 19.8653 43.9396 18.9376 44.3685 17.3745C44.7973 15.8113 43.8475 14.2045 42.2471 13.7857C40.6467 13.3668 39.0017 14.2945 38.5729 15.8577C38.3704 16.5958 38.4753 17.3436 38.811 17.9716L36.3216 20.4069L34.0386 18.1735Z" fill="#4F4F4F"/>
</svg>
