<svg width="41" height="52" viewBox="0 0 41 52" fill="none" xmlns="http://www.w3.org/2000/svg">
<path fill-rule="evenodd" clip-rule="evenodd" d="M32.1689 27.4902C32.0565 27.6012 32 27.7559 32 27.9139V44.9139C32 46.5708 30.6569 47.9139 29 47.9139H12C10.3431 47.9139 9 46.5708 9 44.9139V27.9139C9 27.7019 8.92702 27.4928 8.77583 27.3441C7.10667 25.7029 6 23.8748 6 22.1167C6 17.0666 12.3092 10.7575 20.4191 6.06346C20.5786 5.97114 20.7765 5.97478 20.9323 6.07332C28.3496 10.766 35 17.0701 35 22.1167C35 23.9272 33.868 25.8118 32.1689 27.4902ZM17.4719 20.177C17.4719 17.6234 19.1409 15.4267 21.5346 14.4517C21.7802 14.3516 21.7593 13.9772 21.4952 13.9525C21.2216 13.927 20.9443 13.9139 20.6639 13.9139C15.879 13.9139 12 17.7195 12 22.4139C12 27.1083 15.879 30.9139 20.6639 30.9139C24.3266 30.9139 27.4584 28.684 28.726 25.5325C28.8188 25.3018 28.5375 25.1079 28.3305 25.2457C27.2023 25.997 25.8136 26.4402 24.3118 26.4402C20.5343 26.4402 17.4719 23.6361 17.4719 20.177ZM23.7622 17.6457C23.8371 17.4153 24.1629 17.4153 24.2378 17.6457L24.6174 18.8141C24.6509 18.9171 24.7469 18.9868 24.8552 18.9868H26.0837C26.3259 18.9868 26.4266 19.2967 26.2307 19.4391L25.2368 20.1612C25.1491 20.2249 25.1125 20.3377 25.1459 20.4407L25.5256 21.6092C25.6004 21.8395 25.3368 22.0311 25.1409 21.8887L24.1469 21.1666C24.0593 21.1029 23.9407 21.1029 23.8531 21.1666L22.8591 21.8887C22.6632 22.0311 22.3996 21.8395 22.4744 21.6092L22.8541 20.4407C22.8875 20.3377 22.8509 20.2249 22.7632 20.1612L21.7693 19.4391C21.5734 19.2967 21.6741 18.9868 21.9163 18.9868H23.1448C23.2531 18.9868 23.3491 18.9171 23.3826 18.8141L23.7622 17.6457Z" fill="#4F4F4F"/>
<path fill-rule="evenodd" clip-rule="evenodd" d="M37 31.8999C37 31.3727 37.2117 30.8698 37.5681 30.4814C39.6498 28.2124 41 25.72 41 23.3179C41 16.005 31.5373 6.86409 21.0103 0.0790242C20.8525 -0.0226908 20.6505 -0.0263835 20.4888 0.0689229C8.97353 6.85542 0 16.0014 0 23.3179C0 25.6724 1.34502 28.1139 3.4218 30.3465C3.78424 30.7361 4 31.2433 4 31.7755V47.9139C4 50.123 5.79086 51.9139 8 51.9139H33C35.2091 51.9139 37 50.123 37 47.9139V31.8999ZM34.5 30.203C34.5 29.6684 34.7182 29.1599 35.0809 28.7673C36.852 26.8505 38 24.7458 38 22.7173C38 16.5378 29.9437 8.81554 20.9716 3.0767C20.8147 2.9763 20.6144 2.97261 20.4536 3.0667C10.6412 8.80693 3 16.5342 3 22.7173C3 24.7051 4.14296 26.766 5.90895 28.6517C6.27774 29.0455 6.5 29.5583 6.5 30.0978V46.9139C6.5 48.5708 7.84314 49.9139 9.5 49.9139H31.5C33.1569 49.9139 34.5 48.5708 34.5 46.9139V30.203Z" fill="#4F4F4F"/>
</svg>
