<svg width="52" height="30" viewBox="0 0 52 30" fill="none" xmlns="http://www.w3.org/2000/svg">
<path d="M9.15381 24.346V7.27308C15.8363 8.30164 21.2859 7.00025 26.0966 5.85151L26.7154 5.70386C31.9108 4.4668 36.6172 3.44294 42.8462 4.7057V21.7969C35.3514 20.6679 29.4855 22.0065 24.3987 23.2177L24.0846 23.2924C18.739 24.5663 14.5186 25.549 9.15381 24.346Z" fill="#20c997"/>
<path fill-rule="evenodd" clip-rule="evenodd" d="M7.61026 2.82563C6.29861 2.54163 5 3.5008 5 4.84284V26.7806C5 26.7806 5 27.3957 9.69907 28.6258C15.1096 29.6154 19.5133 28.5661 24.5481 27.3663L24.8621 27.2915C30.449 25.9612 36.6418 24.5691 44.8504 26.3226C45.4128 26.4428 46.0328 26.3528 46.3825 25.8962C46.771 25.3889 47.0001 24.7555 47.0001 24.0729V2.60761C47.0001 2.34113 46.8892 2.09254 46.6518 1.9715C45.9037 1.59028 44.1408 0.959907 41.909 0.375739C35.8718 -0.585443 31.1368 0.466864 26.2523 1.62989L25.7215 1.75654C20.4212 3.02216 14.7601 4.37397 7.61026 2.82563ZM7.15381 6.10999C7.15381 5.4665 7.75375 4.99146 8.38589 5.11176C15.172 6.40382 20.6141 5.10438 25.7207 3.88502L26.2517 3.75837C31.7094 2.45887 36.98 1.29761 44.0887 2.92823C44.5349 3.03059 44.8462 3.43165 44.8462 3.88953V22.9574C44.8462 23.5937 44.258 24.0671 43.6318 23.9541C36.0229 22.5801 30.1691 23.8997 24.8621 25.1632L24.548 25.238C18.9614 26.5693 14.1517 27.7154 7.88126 26.096C7.44952 25.9845 7.15381 25.5903 7.15381 25.1444V6.10999Z" fill="#20c997"/>
<path d="M52 3.74415C52 4.63691 51.2736 5.3606 50.3776 5.3606C49.4815 5.3606 48.7551 4.63691 48.7551 3.74415C48.7551 2.85139 49.4815 2.12769 50.3776 2.12769C51.2736 2.12769 52 2.85139 52 3.74415Z" fill="#20c997"/>
<path d="M50.3776 10.7488C51.2736 10.7488 52 10.0251 52 9.13233C52 8.23957 51.2736 7.51588 50.3776 7.51588C49.4815 7.51588 48.7551 8.23957 48.7551 9.13233C48.7551 10.0251 49.4815 10.7488 50.3776 10.7488Z" fill="#20c997"/>
<path d="M52 14.5205C52 15.4133 51.2736 16.137 50.3776 16.137C49.4815 16.137 48.7551 15.4133 48.7551 14.5205C48.7551 13.6278 49.4815 12.9041 50.3776 12.9041C51.2736 12.9041 52 13.6278 52 14.5205Z" fill="#20c997"/>
<path d="M50.3776 21.5251C51.2736 21.5251 52 20.8014 52 19.9086C52 19.0159 51.2736 18.2922 50.3776 18.2922C49.4815 18.2922 48.7551 19.0159 48.7551 19.9086C48.7551 20.8014 49.4815 21.5251 50.3776 21.5251Z" fill="#20c997"/>
<path d="M52 25.2968C52 26.1896 51.2736 26.9133 50.3776 26.9133C49.4815 26.9133 48.7551 26.1896 48.7551 25.2968C48.7551 24.4041 49.4815 23.6804 50.3776 23.6804C51.2736 23.6804 52 24.4041 52 25.2968Z" fill="#20c997"/>
<path d="M1.62244 5.3606C2.51849 5.3606 3.2449 4.63691 3.2449 3.74415C3.2449 2.85139 2.51849 2.12769 1.62244 2.12769C0.72641 2.12769 0 2.85139 0 3.74415C0 4.63691 0.72641 5.3606 1.62244 5.3606Z" fill="#20c997"/>
<path d="M3.2449 9.13233C3.2449 10.0251 2.51849 10.7488 1.62244 10.7488C0.72641 10.7488 0 10.0251 0 9.13233C0 8.23957 0.72641 7.51588 1.62244 7.51588C2.51849 7.51588 3.2449 8.23957 3.2449 9.13233Z" fill="#20c997"/>
<path d="M1.62244 16.137C2.51849 16.137 3.2449 15.4133 3.2449 14.5205C3.2449 13.6278 2.51849 12.9041 1.62244 12.9041C0.72641 12.9041 0 13.6278 0 14.5205C0 15.4133 0.72641 16.137 1.62244 16.137Z" fill="#20c997"/>
<path d="M3.2449 19.9086C3.2449 20.8014 2.51849 21.5251 1.62244 21.5251C0.72641 21.5251 0 20.8014 0 19.9086C0 19.0159 0.72641 18.2922 1.62244 18.2922C2.51849 18.2922 3.2449 19.0159 3.2449 19.9086Z" fill="#20c997"/>
<path d="M1.62244 26.9133C2.51849 26.9133 3.2449 26.1896 3.2449 25.2968C3.2449 24.4041 2.51849 23.6804 1.62244 23.6804C0.72641 23.6804 0 24.4041 0 25.2968C0 26.1896 0.72641 26.9133 1.62244 26.9133Z" fill="#20c997"/>
</svg>
