<svg width="36" height="52" viewBox="0 0 36 52" fill="none" xmlns="http://www.w3.org/2000/svg">
<path d="M5 0C2.23859 0 0 2.23859 0 5V47C0 49.7614 2.23859 52 5 52C5.55228 52 6 51.5523 6 51V20.5435C6 19.7788 6.29199 19.0431 6.81628 18.4865C6.81627 18.4865 6.81628 18.4865 6.81628 18.4865L16.3163 8.40137C17.5006 7.1441 19.4994 7.1441 20.6837 8.40137L30.1837 18.4864C30.1837 18.4864 30.1837 18.4864 30.1837 18.4864C30.708 19.043 31 19.7788 31 20.5435V51C31 51.5523 31.4522 52.0104 31.9936 51.9013C34.279 51.4405 36 49.4212 36 47V5C36 2.23859 33.7614 0 31 0H5Z" fill="#4F4F4F"/>
<path d="M26 52C26.5523 52 27 51.5523 27 51V21.3371C27 21.0823 26.9027 20.837 26.7279 20.6515L19.2279 12.6896C18.8331 12.2705 18.1669 12.2705 17.7721 12.6896L10.2721 20.6515C10.0973 20.837 10 21.0823 10 21.3371V51C10 51.5523 10.4477 52 11 52H26Z" fill="#4F4F4F"/>
</svg>
