<svg width="50" height="52" viewBox="0 0 50 52" fill="none" xmlns="http://www.w3.org/2000/svg">
<path d="M28.6772 0.230044C31.7406 -0.166105 34 -0.45825 34 2.99912C34 5.77368 33.8582 10 25.5 10C17.1418 10 17 5.77368 17 2.99912C17 -0.424894 18.8237 -0.171384 21.629 0.2186C22.6743 0.363925 23.856 0.528201 25.1304 0.528201C26.3715 0.528201 27.5763 0.372409 28.6772 0.230044Z" fill="#20c997"/>
<path fill-rule="evenodd" clip-rule="evenodd" d="M30.5052 51.9304C41.6638 52.1716 50 52.3517 50 42.134C50 30.2943 50 12 25 12C0 12 0 30.2943 0 42.134C0 52.3517 8.33624 52.1716 19.4948 51.9304C21.2661 51.8922 23.1085 51.8524 25 51.8524C26.8915 51.8524 28.7339 51.8922 30.5052 51.9304ZM25.9016 30.3742V42.3742C25.9016 42.9265 25.4539 43.3742 24.9016 43.3742C24.3493 43.3742 23.9016 42.9265 23.9016 42.3742V30.3742C23.9016 29.8219 24.3493 29.3742 24.9016 29.3742C25.4539 29.3742 25.9016 29.8219 25.9016 30.3742ZM21.9236 36.7598C21.1517 35.458 19.9038 34.8646 19.077 34.602C18.6271 34.4592 18.1568 34.7244 18.0483 35.1837C17.8526 36.0118 17.7286 37.376 18.5162 38.7154C19.1939 39.8784 20.2172 40.4504 20.9349 40.7236C21.3826 40.894 21.8514 40.6278 22.0175 40.1787L22.1357 39.8583C22.2444 39.5632 22.3531 39.2681 22.4655 38.9731C22.5163 38.8399 22.5407 38.6976 22.5252 38.556C22.4716 38.0661 22.3137 37.4129 21.9236 36.7598ZM30.7264 34.602C29.8995 34.8645 28.6516 35.4579 27.8798 36.7597C27.4896 37.4129 27.3318 38.066 27.2781 38.556C27.2626 38.6976 27.287 38.8399 27.3378 38.973C27.4503 39.2681 27.559 39.5631 27.6676 39.8582L27.7858 40.1786C27.952 40.6278 28.4208 40.8939 28.8684 40.7235C29.5862 40.4504 30.6094 39.8784 31.2871 38.7154C32.0747 37.3759 31.9507 36.0117 31.7551 35.1836C31.6465 34.7243 31.1762 34.4591 30.7264 34.602ZM21.9236 29.7195C21.1517 28.4177 19.9038 27.8243 19.077 27.5617C18.6271 27.4189 18.1568 27.6841 18.0483 28.1434C17.8526 28.9715 17.7286 30.3357 18.5162 31.6751C19.1939 32.8381 20.2172 33.4102 20.9349 33.6833C21.3826 33.8537 21.8514 33.5876 22.0175 33.1384L22.1357 32.818C22.2444 32.5229 22.3531 32.2278 22.4655 31.9328C22.5163 31.7997 22.5407 31.6574 22.5252 31.5157C22.4716 31.0258 22.3137 30.3727 21.9236 29.7195ZM30.7264 27.5617C29.8995 27.8243 28.6516 28.4177 27.8798 29.7195C27.4896 30.3727 27.3318 31.0258 27.2781 31.5157C27.2626 31.6574 27.287 31.7997 27.3378 31.9328C27.4503 32.2278 27.559 32.5229 27.6676 32.818L27.7858 33.1384C27.952 33.5876 28.4208 33.8537 28.8684 33.6833C29.5862 33.4102 30.6094 32.8381 31.2871 31.6751C32.0747 30.3357 31.9507 28.9715 31.7551 28.1434C31.6465 27.6841 31.1762 27.4189 30.7264 27.5617ZM27.013 24.2158C27.013 25.8306 26.1678 26.9522 25.5591 27.5559C25.2291 27.8832 24.6855 27.8832 24.3555 27.5559C23.7468 26.9522 22.9016 25.8306 22.9016 24.2158C22.9016 22.601 23.7468 21.4794 24.3555 20.8757C24.6855 20.5484 25.2291 20.5484 25.5591 20.8757C26.1678 21.4794 27.013 22.601 27.013 24.2158Z" fill="#20c997"/>
</svg>
