<svg width="52" height="53" viewBox="0 0 52 53" fill="none" xmlns="http://www.w3.org/2000/svg">
<path d="M46.0638 4.0064C46.0638 5.90737 44.8814 7.18508 44.141 7.80621C43.8126 8.08163 43.3226 8.08163 42.9943 7.80621C42.2538 7.18508 41.0715 5.90737 41.0715 4.0064C41.0715 2.10543 42.2538 0.827721 42.9943 0.206566C43.3226 -0.0688553 43.8126 -0.0688553 44.141 0.206566C44.8814 0.827721 46.0638 2.10543 46.0638 4.0064Z" fill="#4F4F4F"/>
<path d="M39.8838 10.0424C38.8813 8.51528 37.2175 7.87701 36.2253 7.62084C35.7863 7.5075 35.3364 7.75466 35.2118 8.19073C34.9569 9.08251 34.7454 10.6498 35.7463 12.1873C36.6354 13.5655 38.0142 14.187 38.8859 14.456C39.3248 14.5914 39.7717 14.3425 39.9464 13.9177C40.0107 13.7612 40.0745 13.6048 40.1383 13.4483L40.1434 13.4358C40.275 13.1131 40.4066 12.7904 40.5428 12.4676C40.6037 12.3234 40.6331 12.1671 40.6143 12.0118C40.5491 11.4745 40.3573 10.7585 39.8838 10.0424Z" fill="#4F4F4F"/>
<path d="M43.7143 9.66369H43.2858C42.7335 9.66369 42.2858 10.1114 42.2858 10.6637V24.0186C42.2858 24.5709 42.7335 25.0186 43.2858 25.0186H43.7143C44.2666 25.0186 44.7143 24.5709 44.7143 24.0186V10.6637C44.7143 10.1114 44.2666 9.66369 43.7143 9.66369Z" fill="#4F4F4F"/>
<path d="M39.8838 17.7641C38.8813 16.2369 37.2175 15.5986 36.2253 15.3425C35.7863 15.2291 35.3364 15.4763 35.2118 15.9123C34.9569 16.8041 34.7454 18.3714 35.7463 19.909C36.6354 21.2871 38.0142 21.9086 38.8859 22.1776C39.3248 22.313 39.7717 22.0641 39.9464 21.6393C40.0107 21.4828 40.0745 21.3264 40.1383 21.1699L40.1434 21.1575C40.275 20.8347 40.4066 20.512 40.5428 20.1893C40.6037 20.0451 40.6331 19.8888 40.6143 19.7334C40.5491 19.1962 40.3573 18.4801 39.8838 17.7641Z" fill="#4F4F4F"/>
<path d="M50.7747 15.3424C49.7825 15.5986 48.1188 16.2368 47.1163 17.764C46.6428 18.48 46.451 19.1961 46.3858 19.7333C46.3669 19.8887 46.3964 20.045 46.4572 20.1892C46.5944 20.5141 46.7269 20.8391 46.8593 21.164L46.8787 21.2115C46.9369 21.3541 46.9951 21.4967 47.0536 21.6393C47.2283 22.064 47.6753 22.3129 48.1141 22.1775C48.9858 21.9085 50.3646 21.287 51.2538 19.9089C52.2546 18.3714 52.0432 16.8041 51.7883 15.9123C51.6636 15.4762 51.2138 15.2291 50.7747 15.3424Z" fill="#4F4F4F"/>
<path d="M50.7747 7.62084C49.7825 7.87701 48.1188 8.51528 47.1163 10.0424C46.6428 10.7585 46.451 11.4745 46.3858 12.0118C46.3669 12.1671 46.3964 12.3234 46.4572 12.4676C46.5944 12.7926 46.7269 13.1175 46.8593 13.4425L46.8787 13.49C46.9369 13.6326 46.9951 13.7751 47.0536 13.9177C47.2283 14.3425 47.6753 14.5914 48.1141 14.456C48.9858 14.1869 50.3646 13.5655 51.2538 12.1873C52.2546 10.6498 52.0432 9.08251 51.7883 8.19073C51.6636 7.75466 51.2138 7.5075 50.7747 7.62084Z" fill="#4F4F4F"/>
<path d="M0 28.0185C0 26.3617 1.34314 25.0185 3 25.0185H6C7.65686 25.0185 9 26.3617 9 28.0185V45.0185C9 46.6754 7.65686 48.0185 6 48.0185H3C1.34314 48.0185 0 46.6754 0 45.0185V28.0185Z" fill="#4F4F4F"/>
<path d="M11 44.9134V30.8143C11 27.8136 13.7419 25.561 16.6855 26.1434C16.7892 26.1639 16.8882 26.1802 16.9929 26.1942C18.613 26.4112 32.6879 28.3581 34.4989 30.7555C36.421 33.2998 34.3542 37.7166 31.9362 37.1164C31.3537 36.9718 30.8158 36.8319 30.3195 36.7028C28.7557 36.2961 27.6046 35.9967 26.7709 35.9967C25.6726 35.9967 26.0387 39.1 26.7709 39.4635C27.2573 39.7049 31.2206 40.6452 33.8275 41.2495C35.3132 41.5939 36.8683 41.434 38.2574 40.8044L45.1741 37.6698C46.8555 36.9078 48.8314 36.7557 50.3556 37.797C51.8333 38.8066 52.9946 40.2768 50.7194 41.7747C48.8382 43.0131 46.8334 44.4271 44.7619 45.8884L44.7606 45.8893C42.3299 47.6038 39.8074 49.3831 37.2849 51.0194C33.1578 53.6965 21.7405 50.2926 17.2874 48.965L17.2839 48.9639C16.6967 48.7889 16.2308 48.65 15.9191 48.5661C14.0776 48.0703 11 46.8204 11 44.9134Z" fill="#4F4F4F"/>
</svg>
