<svg width="52" height="36" viewBox="0 0 52 36" fill="none" xmlns="http://www.w3.org/2000/svg">
<path fill-rule="evenodd" clip-rule="evenodd" d="M38.2353 3C38.2353 1.34314 36.8922 0 35.2353 0H16.7647C15.1078 0 13.7647 1.34314 13.7647 3V23.7206C13.7647 24.1348 14.1005 24.4706 14.5147 24.4706H37.4853C37.8995 24.4706 38.2353 24.1348 38.2353 23.7206V3ZM19.8823 6.11768C19.8823 5.27301 19.1975 4.58826 18.3528 4.58826C17.5082 4.58826 16.8234 5.27301 16.8234 6.11768V7.64709C16.8234 8.49176 17.5082 9.17648 18.3528 9.17648C19.1975 9.17648 19.8823 8.49176 19.8823 7.64709V6.11768ZM26 13.7647C28.534 13.7647 30.5882 15.8189 30.5882 18.3529C30.5882 20.887 28.534 22.9412 26 22.9412C23.4659 22.9412 21.4117 20.887 21.4117 18.3529C21.4117 15.8189 23.4659 13.7647 26 13.7647Z" transform="translate(0 0.823486)" fill="#4F4F4F"/>
<path d="M4 35.1765C1.79083 35.1765 0 33.3856 0 31.1765V20.8235C0 18.6144 1.79083 16.8235 4 16.8235H9.70587C10.2582 16.8235 10.7059 17.2712 10.7059 17.8235V20.4118C10.7059 20.9641 10.2582 21.4118 9.70587 21.4118H8.64709C8.09479 21.4118 7.64709 21.8595 7.64709 22.4118V26.5294C7.64709 27.0817 8.09479 27.5294 8.64709 27.5294H43.353C43.9053 27.5294 44.353 27.0817 44.353 26.5294V22.4118C44.353 21.8595 43.9053 21.4118 43.353 21.4118H42.2941C41.7418 21.4118 41.2941 20.9641 41.2941 20.4118V17.8235C41.2941 17.2712 41.7418 16.8235 42.2941 16.8235H48C50.2092 16.8235 52 18.6144 52 20.8235V31.1765C52 33.3856 50.2092 35.1765 48 35.1765H4Z" transform="translate(0 0.823486)" fill="#4F4F4F"/>
</svg>
