<svg width="26" height="52" viewBox="0 0 26 52" fill="none" xmlns="http://www.w3.org/2000/svg">
<path d="M23.7485 11.498C23.9133 11.0656 23.9999 10.5591 23.9999 9.96618C23.9999 7.73479 21.6967 6.45855 19.1277 5.03503C16.9122 3.8074 14.4991 2.47027 13.195 0.316521C12.9395 -0.105507 12.114 -0.105507 11.8584 0.316521C10.5544 2.47027 8.14121 3.80743 5.92573 5.03503C3.35673 6.45855 1.0535 7.73479 1.0535 9.96618C1.0535 10.5591 1.14017 11.0655 1.30491 11.498L0.392462 12.1995C-0.364648 12.7815 0.046973 13.9922 1.00196 13.9922H24.0515C25.0064 13.9922 25.4181 12.7815 24.6609 12.1995L23.7485 11.498Z" fill="#4F4F4F"/>
<path d="M1.30491 40.4944L0.392462 39.7929C-0.364648 39.2109 0.046973 38.0001 1.00196 38.0001H24.0515C25.0064 38.0001 25.4181 39.2109 24.6609 39.7929L23.7485 40.4943C23.9133 40.9268 23.9999 41.4332 23.9999 42.0262C23.9999 44.2576 21.6967 45.5338 19.1277 46.9573C16.9122 48.185 14.4991 49.5221 13.195 51.6758C12.9395 52.0979 12.114 52.0979 11.8584 51.6758C10.5544 49.5221 8.14121 48.1849 5.92573 46.9573C3.35673 45.5338 1.0535 44.2576 1.0535 42.0262C1.0535 41.4333 1.14017 40.9268 1.30491 40.4944Z" fill="#4F4F4F"/>
<path d="M15.0722 31.9821V22.9246L12.5268 20.6534L9.9813 22.9246V31.9821H15.0722Z" fill="#4F4F4F"/>
<path fill-rule="evenodd" clip-rule="evenodd" d="M0.910498 16.9719C0.910498 16.4196 1.35822 15.9719 1.9105 15.9719H23.1429C23.6952 15.9719 24.1429 16.4196 24.1429 16.9719V18.45C24.0866 18.483 24.0327 18.5221 23.9823 18.5671L20.4368 21.7304C20.2241 21.9202 20.1025 22.1916 20.1025 22.4766V32.9821C20.1025 33.5344 20.5503 33.9821 21.1025 33.9821H24.1429V34.9832C24.1429 35.5355 23.6952 35.9832 23.1429 35.9832H1.9105C1.35822 35.9832 0.910498 35.5355 0.910498 34.9832V33.9821H3.95096C4.50327 33.9821 4.95096 33.5344 4.95096 32.9821V22.4766C4.95096 22.1916 4.82938 21.9202 4.61674 21.7304L1.07126 18.5671C1.02079 18.522 0.966895 18.483 0.910498 18.4499V16.9719ZM8.31553 21.7304C8.10288 21.9202 7.9813 22.1916 7.9813 22.4766V32.9821C7.9813 33.5344 8.42902 33.9821 8.9813 33.9821H16.0722C16.6245 33.9821 17.0722 33.5344 17.0722 32.9821V22.4766C17.0722 22.1916 16.9507 21.9202 16.738 21.7304L13.1925 18.5671C12.8132 18.2286 12.2403 18.2286 11.861 18.5671L8.31553 21.7304Z" fill="#4F4F4F"/>
<path d="M22.1025 22.9246L24.1429 21.1041V31.9821H22.1025V22.9246Z" fill="#4F4F4F"/>
<path d="M0.910498 31.9821V21.104L2.95096 22.9246V31.9821H0.910498Z" fill="#4F4F4F"/>
</svg>
