<svg width="53" height="36" viewBox="0 0 53 36" fill="none" xmlns="http://www.w3.org/2000/svg">
<path fill-rule="evenodd" clip-rule="evenodd" d="M37.0983 17C37.0983 26.3889 31.9826 34 25.6719 34C19.3613 34 14.2455 26.3889 14.2455 17C14.2455 7.61115 19.3613 0 25.6719 0C31.9826 0 37.0983 7.61115 37.0983 17ZM31.6571 17C31.6571 22.1487 28.9774 26.3226 25.6718 26.3226C22.3663 26.3226 19.6866 22.1487 19.6866 17C19.6866 11.8513 22.3663 7.6774 25.6718 7.6774C28.9774 7.6774 31.6571 11.8513 31.6571 17Z" fill="#4F4F4F"/>
<path d="M2.73766 7.38849C2.58115 7.61987 2.80743 7.90591 3.07224 7.81696L12.0651 4.79581C12.3458 4.70151 12.3346 4.30066 12.0491 4.22217L7.42433 2.95096C7.34167 2.92825 7.25315 2.94186 7.18166 2.98917C5.42763 4.14987 3.91564 5.64697 2.73766 7.38849Z" fill="#4F4F4F"/>
<path d="M18.6767 0.906067C18.895 0.717743 18.7658 0.341797 18.4775 0.341797H16C14.1424 0.341797 12.3588 0.658325 10.7001 1.24045C10.4305 1.33502 10.4511 1.70874 10.7266 1.78445L16.2216 3.29486C16.3406 3.32758 16.4674 3.28381 16.5425 3.18579C17.1974 2.33035 17.9121 1.56577 18.6767 0.906067Z" fill="#4F4F4F"/>
<path d="M16.2178 30.9126C16.1439 30.8094 16.0137 30.7622 15.8913 30.7958L9.70534 32.4962C9.43921 32.5693 9.40733 32.9274 9.66071 33.0368C11.6045 33.8765 13.7479 34.3418 16 34.3418H18.6471C18.9383 34.3418 19.0663 33.9583 18.8427 33.7716C17.8858 32.9725 17.0046 32.0105 16.2178 30.9126Z" fill="#4F4F4F"/>
<path d="M12.0649 29.2042C12.3457 29.2985 12.3345 29.6993 12.0489 29.7778L6.72418 31.2414C6.63609 31.2656 6.54166 31.2485 6.46832 31.194C4.73869 29.9091 3.27737 28.2834 2.18378 26.4161C2.04711 26.1828 2.27328 25.9146 2.52962 26.0008L12.0649 29.2042Z" fill="#4F4F4F"/>
<path d="M14.1684 27.2571C14.2732 27.4997 14.0414 27.7583 13.7909 27.6741L3.09942 24.0823C2.85633 24.0006 2.82113 23.6714 3.04146 23.5402L11.7615 18.3471C11.9581 18.23 12.2086 18.3674 12.2196 18.5959C12.3722 21.7553 13.0652 24.704 14.1684 27.2571Z" fill="#4F4F4F"/>
<path d="M9.68179 16.7423C9.87712 16.8586 9.87712 17.1414 9.68179 17.2578L0.929138 22.4704C0.759445 22.5715 0.540054 22.4838 0.49144 22.2924C0.170532 21.0288 0 19.7052 0 18.3418V16.3418C0 14.7615 0.229095 13.2348 0.655876 11.793C0.710594 11.6081 0.925041 11.5272 1.09067 11.6258L9.68179 16.7423Z" fill="#4F4F4F"/>
<path d="M12.2492 15.4279C12.2341 15.6536 11.9859 15.7867 11.7915 15.6709L3.04144 10.4598C2.82112 10.3286 2.85633 9.99933 3.09941 9.91766L14.0746 6.23056C14.3299 6.14481 14.5634 6.41425 14.4488 6.65793C13.2463 9.21417 12.466 12.2044 12.2492 15.4279Z" fill="#4F4F4F"/>
<path d="M40.7802 7.97568C41.3303 5.83612 43.5103 4.54901 45.6495 5.1008L49.0999 5.99088C51.2391 6.54269 52.5272 8.72446 51.9771 10.864L51.0775 14.3624C50.5274 16.502 48.3473 17.7891 46.2082 17.2373L42.7577 16.3472C40.6186 15.7954 39.3305 13.6136 39.8806 11.4741L40.7802 7.97568Z" fill="#4F4F4F"/>
<path d="M43.0249 18.2669C42.4902 18.1289 41.9452 18.4507 41.8076 18.9856L38.1287 33.2934C37.9912 33.8283 38.3132 34.3737 38.848 34.5117L40.6437 34.9749C41.1785 35.1129 41.7235 34.7911 41.861 34.2562L45.5399 19.9484C45.6775 19.4135 45.3554 18.868 44.8206 18.7301L43.0249 18.2669Z" fill="#4F4F4F"/>
</svg>
