<svg width="52" height="40" viewBox="0 0 52 40" fill="none" xmlns="http://www.w3.org/2000/svg">
<path d="M38.9987 27.0734C41.3919 27.0734 43.3319 21.0128 43.3319 13.5367C43.3319 6.06058 41.3919 0 38.9987 0C36.6056 0 34.6655 6.06058 34.6655 13.5367C34.6655 21.0128 36.6056 27.0734 38.9987 27.0734Z" fill="#4F4F4F"/>
<path d="M3.93412 4.48465C3.6368 4.29476 3.62549 3.8658 3.9291 3.68613C4.92828 3.09479 6.07022 2.71344 7.29709 2.60522C7.29709 2.60522 7.29709 2.60522 7.29709 2.60522L34.8262 0.177003C34.9342 0.167485 35.0108 0.280288 34.9633 0.377624C34.9523 0.400107 34.9353 0.419543 34.9143 0.433208L16.7152 12.2988C16.5506 12.406 16.3385 12.407 16.1729 12.3013L3.93412 4.48465Z" fill="#4F4F4F"/>
<path d="M18.9477 14.0735C18.6416 13.878 18.6395 13.4316 18.9438 13.2332L32.6464 4.29937C33.0341 4.04659 33.5382 4.41366 33.4326 4.86431C32.84 7.39538 32.499 10.3632 32.499 13.5368C32.499 16.7341 32.8451 19.7225 33.4459 22.2659C33.5519 22.7145 33.0529 23.0821 32.6645 22.834L18.9477 14.0735Z" fill="#4F4F4F"/>
<path d="M1.54085 5.85381C1.6904 5.6494 1.97351 5.60556 2.18697 5.74189L13.9532 13.2567C14.2593 13.4522 14.2614 13.8985 13.9571 14.0969L2.41568 21.6217C2.20945 21.7562 1.93466 21.7216 1.77979 21.5302C0.663754 20.1512 0 18.3972 0 16.4993V10.5743C0 8.81603 0.569667 7.18132 1.54085 5.85381Z" fill="#4F4F4F"/>
<path d="M16.728 15.0289C16.5624 14.9231 16.3503 14.9241 16.1858 15.0314L4.28559 22.7901C3.98283 22.9875 3.98466 23.4295 4.30518 23.5965C5.21123 24.0687 6.22153 24.3735 7.29709 24.4683L34.8314 26.897C34.937 26.9063 35.0121 26.7959 34.9655 26.7005C34.9545 26.6782 34.9375 26.6589 34.9165 26.6455L16.728 15.0289Z" fill="#4F4F4F"/>
<path d="M7.90374 26.4408C7.47464 26.4035 7.20229 26.89 7.45846 27.2363L10.5835 31.4606C10.7143 31.6373 10.7143 31.8787 10.5835 32.0554L6.14646 38.0532C6.14646 38.0532 6.14645 38.0532 6.14646 38.0532C5.98224 38.2752 6.00742 38.6135 6.20272 38.8087C6.20272 38.8087 6.20273 38.8087 6.20272 38.8087L7.16 39.7657C7.16 39.7656 7.16 39.7657 7.16 39.7657C7.35528 39.9609 7.64672 39.9392 7.81096 39.7172C7.81096 39.7172 7.81097 39.7172 7.81096 39.7172L11.8493 34.2584C12.0492 33.9882 12.4533 33.9882 12.6532 34.2584L16.6916 39.7172C16.6915 39.7172 16.6916 39.7173 16.6916 39.7172C16.8558 39.9392 17.1472 39.9609 17.3425 39.7657C17.3425 39.7657 17.3425 39.7657 17.3425 39.7657L18.2998 38.8088C18.2998 38.8088 18.2998 38.8088 18.2998 38.8088C18.4951 38.6135 18.5203 38.2753 18.3561 38.0533C18.3561 38.0533 18.3561 38.0533 18.3561 38.0533L13.9189 32.0554C13.7882 31.8787 13.7882 31.6374 13.9189 31.4607L16.5132 27.9538C16.7456 27.6396 16.5439 27.1922 16.1546 27.1584L14.6028 27.0234C14.4296 27.0083 14.261 27.0844 14.1575 27.2242L12.6532 29.2577C12.4533 29.5279 12.0491 29.5279 11.8493 29.2577L10.0275 26.7951C9.94222 26.6798 9.81162 26.6067 9.66883 26.5943L7.90374 26.4408Z" fill="#4F4F4F"/>
<path d="M25.2704 27.9512C24.8413 27.9138 24.5689 28.4004 24.8251 28.7466L26.8329 31.4607C26.9636 31.6374 26.9636 31.8787 26.8329 32.0554L22.3958 38.0533C22.3958 38.0533 22.3958 38.0533 22.3958 38.0533C22.2316 38.2753 22.2567 38.6135 22.452 38.8087C22.452 38.8087 22.452 38.8087 22.452 38.8087L23.4093 39.7657C23.4093 39.7657 23.4093 39.7657 23.4093 39.7657C23.6046 39.9609 23.8961 39.9392 24.0603 39.7172C24.0603 39.7172 24.0603 39.7172 24.0603 39.7172L28.0986 34.2584C28.2985 33.9882 28.7027 33.9882 28.9025 34.2584L32.9409 39.7173C32.9409 39.7173 32.9409 39.7173 32.9409 39.7173C33.1051 39.9393 33.3966 39.961 33.5919 39.7658C33.5919 39.7658 33.5919 39.7657 33.5919 39.7658L34.5491 38.8088C34.5491 38.8088 34.5491 38.8088 34.5491 38.8088C34.7444 38.6136 34.7696 38.2753 34.6054 38.0534C34.6054 38.0534 34.6054 38.0533 34.6054 38.0534L30.1683 32.0554C30.0376 31.8787 30.0376 31.6374 30.1683 31.4607L31.7803 29.2816C32.0127 28.9674 31.811 28.52 31.4216 28.4862L29.8699 28.3512C29.6967 28.3361 29.528 28.4122 29.4246 28.552L28.9025 29.2577C28.7027 29.5279 28.2985 29.5279 28.0986 29.2577L27.3942 28.3054C27.3089 28.1902 27.1783 28.1171 27.0355 28.1047L25.2704 27.9512Z" fill="#4F4F4F"/>
<path d="M45.4985 13.9123C45.4985 13.9123 45.4985 13.9123 45.4985 13.9123C45.4977 12.8077 46.3924 11.9123 47.497 11.9123H49.9967C51.1013 11.9123 51.9975 12.8077 51.9983 13.9123C51.9983 13.9123 51.9983 13.9123 51.9983 13.9123L52.0003 16.4099C52.0011 17.5145 51.1064 18.4099 50.0018 18.4099H47.502C46.3975 18.4099 45.5013 17.5145 45.5005 16.4099C45.5005 16.4099 45.5005 16.4099 45.5005 16.4099L45.4985 13.9123Z" fill="#4F4F4F"/>
<path d="M47.7244 21.0758C47.7244 21.0758 47.7244 21.0758 47.7244 21.0758C47.7242 20.7996 47.9479 20.5758 48.224 20.5758H49.3906C49.6668 20.5758 49.8908 20.7996 49.891 21.0758C49.891 21.0758 49.891 21.0758 49.891 21.0758L49.8979 29.8222C49.8979 29.8222 49.8979 29.8222 49.8979 29.8222C49.8981 30.0984 49.6744 30.3222 49.3983 30.3222H48.2317C47.9555 30.3222 47.7315 30.0984 47.7313 29.8222C47.7313 29.8222 47.7313 29.8222 47.7313 29.8222L47.7244 21.0758Z" fill="#4F4F4F"/>
</svg>
